PathFileType	4	(x/y/z)	S05_P20_T07
DataRate	CameraRate	NumFrames	NumMarkers	Units	OrigDataRate	OrigDataStartFrame	OrigNumFrames
240	240	5	50	mm	240	142	376
Frame#	Time	Sternum			R.Acromium			L.Acromium			Top.Head			R.ASIS			L.ASIS			R.PSIS			L.PSIS			R.Great.Tro			L.Great.Tro			R.Iliac.Crest			L.Iliac.Crest			V.Sacral			R.Thigh.Upper.Post			R.Thigh.Lower.Ant			R.Thigh.Lower.Post			R.Thigh.Upper.Ant			R.Knee.Lat			R.Knee.Med			R.Shank.Upper.Post			R.Shank.Lower.Ant			R.Shank.Lower.Post			R.Shank.Upper.Ant			R.Ankle.Lat			R.Ankle.Med			R.Heel.Upper			R.Heel.Med			R.Heel.Lat			R.Toe.Lat			R.Toe.Med			R.Toe.Tip			L.Thigh.Upper.Post			L.Thigh.Lower.Ant			L.Thigh.Lower.Post			L.Thigh.Upper.Ant			L.Knee.Lat			L.Shank.Upper.Post			L.Shank.Lower.Ant			L.Shank.Lower.Post			L.Shank.Upper.Ant			L.Ankle.Lat			L.Ankle.Med			L.Heel.Upper			L.Heel.Med			L.Heel.Lat			L.Toe.Lat			L.Toe.Med			L.Toe.Tip			Cervical.Spine			Back			
		X1	Y1	Z1	X2	Y2	Z2	X3	Y3	Z3	X4	Y4	Z4	X5	Y5	Z5	X6	Y6	Z6	X7	Y7	Z7	X8	Y8	Z8	X9	Y9	Z9	X10	Y10	Z10	X11	Y11	Z11	X12	Y12	Z12	X13	Y13	Z13	X14	Y14	Z14	X15	Y15	Z15	X16	Y16	Z16	X17	Y17	Z17	X18	Y18	Z18	X19	Y19	Z19	X20	Y20	Z20	X21	Y21	Z21	X22	Y22	Z22	X23	Y23	Z23	X24	Y24	Z24	X25	Y25	Z25	X26	Y26	Z26	X27	Y27	Z27	X28	Y28	Z28	X29	Y29	Z29	X30	Y30	Z30	X31	Y31	Z31	X32	Y32	Z32	X33	Y33	Z33	X34	Y34	Z34	X35	Y35	Z35	X36	Y36	Z36	X37	Y37	Z37	X38	Y38	Z38	X39	Y39	Z39	X40	Y40	Z40	X41	Y41	Z41	X42	Y42	Z42	X43	Y43	Z43	X44	Y44	Z44	X45	Y45	Z45	X46	Y46	Z46	X47	Y47	Z47	X48	Y48	Z48	X49	Y49	Z49	X50	Y50	Z50	

142	0.5875	-574.77	1241.2	343.84	-668.53	1491.9	514.24	-661.7	1532.7	187.7	-681.85	1806.2	346.68	-650.43	997.12	456.79	-641.12	999.11	207.77	-850.74	1004.6	365.55	-845.6	1008.3	274.65	-727.24	911.7	516.12	-728.53	915.95	129.95	-741.47	1073.3	494.47	-732.46	1073.8	161.04	-859.05	970.16	332.26	-608.47	705.61	507.68	-539.4	653.17	453.6	-597.5	619.16	481.79	-554.67	738.31	478.48	-577.88	526.8	461.44	-566.21	519.67	330.99	-628.61	280.58	438.52	-561	221.04	438.24	-620.87	206.32	419.34	-566.99	297.54	457.54	-565.02	119.82	418.32	-554.03	145.36	332.88	-626.61	71.611	348.95	-614.59	40.293	322.15	-621.96	44.49	386.43	-462.01	36.734	454.74	-416.78	44.659	338.98	-357.72	63.596	389.03	-714.26	676.32	125.31	-628.07	607.25	138.38	-697.09	582.41	134.67	-637.41	697.54	127.87	-694.53	496.87	137.89	-874	407.49	155.22	-871.33	318.6	155.63	-927.11	360.53	176.9	-822.21	368.25	139.74	-1012	252.47	190.88	-966.06	231.57	269.09	-1077.5	263.27	254.45	-1083.1	239.24	288.75	-1102.1	245.02	229.89	-1005.1	103.14	153.37	-959.32	92.039	263.72	-919.15	58.107	202.14	-719.26	1549	356.62	-842.12	1276.5	329.64
143	0.59167	-569.23	1241.9	344.02	-662.38	1492.5	514.87	-656.27	1533.5	188.3	-676.13	1806.9	347.57	-645.08	997.95	457.41	-635.44	999.67	208.33	-845.26	1005.4	365.74	-840.02	1008.7	274.82	-722.14	912.6	516.61	-722.21	916.27	130.28	-736.27	1074.2	494.86	-726.78	1074.3	161.35	-853.53	970.85	332.54	-604.52	705.93	508.4	-535.56	653.13	454.57	-593.98	619.46	482.47	-550.4	738.34	479.47	-574.82	526.91	462.1	-562.86	519.82	331.69	-627.13	280.95	438.96	-559.9	220.97	438.55	-619.89	206.67	419.63	-565.41	297.45	457.95	-564.7	119.8	418.43	-553.56	145.51	333.04	-626.56	71.713	349.03	-614.54	40.414	322.2	-621.91	44.551	386.48	-461.97	36.571	454.88	-416.71	44.465	339	-357.63	63.165	389.08	-704.19	676.73	125.18	-617.22	608.76	138.54	-685.86	583.03	134.55	-627.66	698.95	128.14	-681.95	497.95	137.76	-861.91	410.43	155.15	-860.06	321.46	155.48	-915.46	363.95	176.74	-810.48	370.68	139.7	-1001.5	256.82	190.67	-955.85	235.38	268.88	-1066.9	268.3	254.38	-1072.9	244.23	288.62	-1091.8	250.38	229.69	-996.23	107.51	152.75	-950.57	95.438	263.02	-910.72	60.67	201.25	-713.46	1549.7	357.41	-836.48	1277.4	330.42
144	0.59583	-563.73	1242.5	344.17	-656.23	1493.1	515.46	-650.85	1534.4	188.85	-670.4	1807.7	348.42	-639.75	998.78	458.02	-629.8	1000.3	208.89	-839.81	1006.3	365.97	-834.47	1009.2	275.01	-717.02	913.5	517.09	-715.96	916.7	130.61	-731.06	1075.2	495.27	-721.12	1074.8	161.69	-848.05	971.57	332.85	-600.66	706.25	509.06	-531.83	653.07	455.46	-590.57	619.74	483.1	-546.23	738.36	480.39	-571.88	527.01	462.7	-559.66	519.95	332.33	-625.75	281.32	439.33	-558.91	220.92	438.82	-618.98	207.01	419.86	-563.95	297.38	458.29	-564.43	119.78	418.52	-553.14	145.66	333.17	-626.52	71.804	349.09	-614.49	40.523	322.24	-621.88	44.604	386.52	-461.93	36.438	455.01	-416.65	44.32	339.02	-357.58	62.816	389.14	-694.18	677.31	125.12	-606.45	610.44	138.79	-674.68	583.84	134.51	-617.98	700.52	128.47	-669.44	499.21	137.7	-849.79	413.32	155.15	-848.64	324.29	155.36	-903.73	367.26	176.61	-798.66	373.14	139.7	-990.77	260.9	190.47	-945.38	239.03	268.71	-1056.1	272.92	254.28	-1062.5	248.79	288.45	-1081.2	255.27	229.45	-986.72	111.68	152.15	-941.25	98.764	262.4	-901.62	63.303	200.48	-707.67	1550.6	358.16	-830.87	1278.2	331.21
145	0.6	-558.26	1243.2	344.3	-650.09	1493.8	516.02	-645.46	1535.2	189.36	-664.67	1808.5	349.22	-634.45	999.62	458.62	-624.19	1001	209.45	-834.39	1007.2	366.23	-828.95	1009.8	275.25	-711.88	914.4	517.57	-709.79	917.22	130.94	-725.84	1076.1	495.67	-715.49	1075.3	162.05	-842.6	972.34	333.18	-596.88	706.57	509.65	-528.2	652.99	456.27	-587.25	620.02	483.68	-542.13	738.35	481.22	-569.08	527.11	463.23	-556.6	520.06	332.9	-624.47	281.68	439.61	-558	220.89	439.05	-618.15	207.35	420.03	-562.61	297.33	458.57	-564.19	119.78	418.58	-552.74	145.82	333.28	-626.5	71.887	349.14	-614.46	40.622	322.28	-621.85	44.651	386.55	-461.91	36.329	455.11	-416.61	44.213	339.04	-357.54	62.538	389.19	-684.22	678.05	125.12	-595.77	612.28	139.11	-663.58	584.82	134.54	-608.39	702.23	128.87	-657	500.66	137.71	-837.64	416.15	155.19	-837.08	327.06	155.27	-891.91	370.42	176.52	-786.77	375.61	139.75	-979.76	264.67	190.27	-934.64	242.48	268.57	-1045.2	277.09	254.14	-1051.8	252.9	288.24	-1070.3	259.67	229.16	-976.59	115.6	151.6	-931.37	101.98	261.87	-891.86	65.965	199.84	-701.9	1551.4	358.87	-825.28	1279.2	332.01
146	0.60417	-552.81	1243.9	344.4	-643.97	1494.5	516.54	-640.1	1536.1	189.84	-658.93	1809.3	349.96	-629.15	1000.5	459.22	-618.62	1001.7	210.01	-828.99	1008.1	366.52	-823.45	1010.4	275.51	-706.73	915.28	518.05	-703.7	917.85	131.26	-720.6	1077.1	496.09	-709.88	1075.9	162.43	-837.17	973.15	333.54	-593.16	706.88	510.18	-524.67	652.9	456.99	-584.03	620.29	484.19	-538.12	738.33	481.97	-566.41	527.2	463.71	-553.68	520.16	333.4	-623.28	282.05	439.82	-557.17	220.88	439.23	-617.39	207.69	420.14	-561.37	297.28	458.78	-563.98	119.79	418.63	-552.37	145.98	333.36	-626.5	71.965	349.18	-614.42	40.712	322.31	-621.83	44.696	386.58	-461.89	36.242	455.21	-416.58	44.136	339.05	-357.53	62.318	389.24	-674.33	678.94	125.19	-585.18	614.29	139.49	-652.55	585.98	134.65	-598.88	704.09	129.32	-644.66	502.29	137.8	-825.48	418.88	155.27	-825.38	329.75	155.21	-880.02	373.43	176.45	-774.81	378.06	139.84	-968.5	268.13	190.08	-923.65	245.72	268.47	-1034	280.8	253.95	-1040.9	256.54	287.97	-1059.2	263.55	228.81	-965.84	119.25	151.11	-920.93	105.07	261.44	-881.43	68.619	199.34	-696.15	1552.3	359.55	-819.71	1280.1	332.83
